<svg width="11" height="16" viewBox="0 0 11 16" fill="none" xmlns="http://www.w3.org/2000/svg">
<path d="M8.52234 5.2H10.1843C10.1843 2.9304 7.89493 1.8952 6.02932 1.6568V0H4.36731V1.6568C2.5017 1.8952 0.21228 2.9304 0.21228 5.2C0.21228 7.3648 2.42774 8.4904 4.36731 8.744V12.72C3.16401 12.5192 1.87429 11.9008 1.87429 10.8H0.21228C0.21228 12.8712 2.22747 14.0952 4.36731 14.3488V16H6.02932V14.344C7.89493 14.1056 10.1843 13.0696 10.1843 10.8C10.1843 8.5304 7.89493 7.4952 6.02932 7.2568V3.28C7.13456 3.4712 8.52234 4.0328 8.52234 5.2ZM1.87429 5.2C1.87429 4.0328 3.26207 3.4712 4.36731 3.28V7.1192C3.228 6.9168 1.87429 6.3176 1.87429 5.2ZM8.52234 10.8C8.52234 11.9672 7.13456 12.5288 6.02932 12.72V8.88C7.13456 9.0712 8.52234 9.6328 8.52234 10.8Z" fill="#CCCDD2"/>
</svg>
