<svg width="23" height="18" viewBox="0 0 23 18" fill="none" xmlns="http://www.w3.org/2000/svg">
<path fill-rule="evenodd" clip-rule="evenodd" d="M0 3.53571C0 1.58299 1.57322 0 3.51389 0H19.4861C21.4268 0 23 1.58299 23 3.53571V6.10714V9V14.4643C23 16.417 21.4268 18 19.4861 18H3.51389C1.57322 18 0 16.417 0 14.4643V9V6.10714V3.53571ZM3.51389 1.92857C2.63177 1.92857 1.91667 2.64811 1.91667 3.53571V4.20524C2.02055 4.1877 2.12727 4.17857 2.23611 4.17857H20.7639C20.8727 4.17857 20.9794 4.1877 21.0833 4.20524V3.53571C21.0833 2.64811 20.3682 1.92857 19.4861 1.92857H3.51389ZM21.0833 8.00905C20.9794 8.02659 20.8727 8.03571 20.7639 8.03571H2.23611C2.12727 8.03571 2.02055 8.02659 1.91667 8.00905V9V14.4643C1.91667 15.3519 2.63177 16.0714 3.51389 16.0714H19.4861C20.3682 16.0714 21.0833 15.3519 21.0833 14.4643V9V8.00905ZM3.83333 11.8929C3.83333 11.3603 4.26239 10.9286 4.79167 10.9286H9.26389C9.79316 10.9286 10.2222 11.3603 10.2222 11.8929C10.2222 12.4254 9.79316 12.8571 9.26389 12.8571H4.79167C4.26239 12.8571 3.83333 12.4254 3.83333 11.8929Z" fill="#CCCDD2"/>
</svg>
